<?xml version="1.0" encoding="UTF-8"?>
<svg version="1.1" xmlns="http://www.w3.org/2000/svg" width="1600" height="896">
<path d="M0 0 C528 0 1056 0 1600 0 C1600 295.68 1600 591.36 1600 896 C1072 896 544 896 0 896 C0 600.32 0 304.64 0 0 Z " fill="#FEFEFE" transform="translate(0,0)"/>
<path d="M0 0 C1.9572989 -0.00678323 3.91459142 -0.01569031 5.87187195 -0.02655029 C11.16526414 -0.04926464 16.45816683 -0.04054014 21.75156713 -0.02465487 C27.30203735 -0.01195689 32.8524669 -0.02374662 38.40293884 -0.03158569 C47.72117606 -0.04067014 57.03921482 -0.02872511 66.35742188 -0.00488281 C77.11851046 0.02233401 87.87912544 0.01350522 98.64020258 -0.01401484 C107.8940126 -0.03672964 117.14768033 -0.0398946 126.40150923 -0.02682149 C131.92211539 -0.0190411 137.44249917 -0.01794681 142.9630909 -0.03450394 C148.15324181 -0.04898414 153.34278395 -0.03886186 158.53286934 -0.01003265 C160.43351736 -0.00344118 162.33421693 -0.0052862 164.23484421 -0.01634598 C175.35109225 -0.0750511 183.30705277 0.05745307 191.98803711 7.70947266 C192.51526367 8.34884766 193.04249023 8.98822266 193.58569336 9.64697266 C194.1309668 10.28634766 194.67624023 10.92572266 195.23803711 11.58447266 C199.49825906 17.81548981 199.44812361 24.33697174 198.64819336 31.64697266 C196.04021399 40.80022065 189.74268322 45.60751823 181.83447266 50.32568359 C178.73143626 52.03956258 175.60421824 53.69607631 172.46069336 55.33447266 C170.13616351 56.5656563 167.81194962 57.79743666 165.48803711 59.02978516 C164.33416504 59.63854492 163.18029297 60.24730469 161.99145508 60.87451172 C157.1453175 63.44373611 152.33307301 66.07317432 147.52319336 68.70947266 C139.94828858 72.85011796 132.36466055 76.97427052 124.77319336 81.08447266 C123.78254883 81.62104492 122.7919043 82.15761719 121.77124023 82.71044922 C116.61281567 85.50362078 111.45217718 88.29262008 106.28881836 91.07666016 C96.6563725 96.27476817 87.05256833 101.50010216 77.57006836 106.96728516 C70.54427005 111.00617991 63.38940292 114.78710026 56.203125 118.53051758 C44.51587642 124.62020564 32.95102672 130.86527264 21.64819336 137.64697266 C111.73819336 138.14197266 111.73819336 138.14197266 203.64819336 138.64697266 C202.60667535 149.06215276 200.95506976 155.34009625 193.64819336 162.64697266 C186.35590724 167.52200097 179.5040349 169.95366323 170.69143677 169.90766907 C169.90791269 169.91149461 169.12438862 169.91532016 168.31712139 169.91926163 C165.70101002 169.929551 163.0851198 169.92560724 160.46899414 169.92163086 C158.58948565 169.9259796 156.70997894 169.93116329 154.83047485 169.93711853 C149.73126207 169.95050275 144.63212344 169.9510878 139.53289652 169.94855523 C135.27349085 169.94748507 131.01410015 169.95237008 126.75469768 169.95716065 C116.70437364 169.96825398 106.65408697 169.96869431 96.60375977 169.96264648 C86.24160558 169.95660681 75.87958719 169.96891799 65.51745617 169.99021655 C56.61536422 170.00784015 47.71331545 170.01383268 38.8112067 170.01057881 C33.49685338 170.00876693 28.18259692 170.01139267 22.86825943 170.02529335 C17.86955863 170.03787926 12.87106927 170.03592028 7.87237167 170.02288246 C6.04063597 170.02051876 4.20888535 170.02324398 2.37716675 170.03150558 C-0.12916039 170.04199236 -2.63478057 170.03385719 -5.14108276 170.02119446 C-5.86074939 170.02856874 -6.58041601 170.03594303 -7.32189071 170.04354078 C-14.9797503 169.96250782 -21.35457697 167.34045674 -27.35180664 162.64697266 C-32.45903017 157.41756674 -35.62678447 153.28623313 -35.78930664 145.77197266 C-35.82926758 144.76392578 -35.86922852 143.75587891 -35.91040039 142.71728516 C-35.16101671 138.59829513 -33.47436597 136.2893036 -30.35180664 133.64697266 C-26.82850968 131.3607643 -23.14723342 129.44162848 -19.41430664 127.52197266 C-17.23825422 126.37404906 -15.0624787 125.22560042 -12.88696289 124.07666016 C-11.79013184 123.50270508 -10.69330078 122.92875 -9.56323242 122.33740234 C-4.79620076 119.82813313 -0.07429696 117.23879889 4.64819336 114.64697266 C11.36177311 110.97761951 18.08478089 107.32617656 24.81542969 103.68823242 C33.7393805 98.86476174 42.64737148 94.01691724 51.50268555 89.06835938 C60.41321848 84.08946159 69.3917381 79.24236174 78.40209961 74.44677734 C90.44340466 68.03259613 102.37887582 61.46396484 114.23803711 54.71728516 C126.33523401 47.83750693 138.47815104 41.07449621 150.99584961 34.98681641 C153.77248691 33.65074104 153.77248691 33.65074104 156.64819336 31.64697266 C91.96819336 31.31697266 27.28819336 30.98697266 -39.35180664 30.64697266 C-39.35180664 21.5213698 -37.80976395 13.97259853 -31.20345974 7.2945919 C-22.03121345 -0.86696359 -11.54099843 -0.06723548 0 0 Z " fill="#131313" transform="translate(373.351806640625,363.35302734375)"/>
<path d="M0 0 C7.92 0 15.84 0 24 0 C31.74402821 14.0714659 39.27628088 28.2266895 46.640625 42.5 C51.04069703 51.02797465 55.51531628 59.51630107 60 68 C62.10708795 65.30900644 63.82302233 62.63254792 65.390625 59.59765625 C65.84542236 58.72149658 66.30021973 57.84533691 66.76879883 56.94262695 C67.25759521 55.99218506 67.7463916 55.04174316 68.25 54.0625 C68.76651123 53.06629639 69.28302246 52.07009277 69.81518555 51.04370117 C72.51855503 45.8254019 75.20670055 40.59929553 77.89254761 35.3719635 C79.20851696 32.81190821 80.52667294 30.25298108 81.84484863 27.69406128 C82.7857169 25.86457872 83.72258684 24.03309007 84.65917969 22.20141602 C85.8441693 19.89821717 87.05837752 17.60978505 88.30322266 15.33837891 C90.08551381 12.04074805 90.08551381 12.04074805 91.16162109 8.47021484 C92.44921875 5.13671875 92.44921875 5.13671875 97 0 C104.92 0 112.84 0 121 0 C121 41.58 121 83.16 121 126 C115.06 126 109.12 126 103 126 C103 94.98 103 63.96 103 32 C102.34 32 101.68 32 101 32 C100.77570313 32.80308594 100.55140625 33.60617187 100.3203125 34.43359375 C98.64292591 38.96452263 96.31990074 42.90712721 93.875 47.0625 C88.30982642 56.64869769 82.92579531 66.32470975 77.60687256 76.04885864 C77.27753723 76.65092133 76.9482019 77.25298401 76.60888672 77.87329102 C76.28562408 78.46454269 75.96236145 79.05579437 75.62930298 79.66496277 C74.68454694 81.38076626 73.72378344 83.08772471 72.76269531 84.79443359 C71.6276929 86.85850308 70.5486459 88.95485728 69.54199219 91.08447266 C68.20322048 93.75404162 67.10732594 95.88168293 65 98 C61.52021453 98.81806057 58.50024483 98.62257319 55 98 C54.5035498 97.08226807 54.5035498 97.08226807 53.99707031 96.14599609 C50.59977931 89.86696995 47.19890971 83.58989259 43.79589844 77.31396484 C42.14577008 74.268989 40.49851063 71.22247783 38.8515625 68.17578125 C37.85954951 66.34625953 36.86736979 64.51682821 35.875 62.6875 C35.44606445 61.8919873 35.01712891 61.09647461 34.57519531 60.27685547 C29.57041057 51.0684182 24.25795567 42.08192344 19 33 C18.67 63.69 18.34 94.38 18 126 C12.06 126 6.12 126 0 126 C0 84.42 0 42.84 0 0 Z " fill="#131313" transform="translate(697,387)"/>
<path d="M0 0 C9.52451878 6.96760099 14.60629474 16.41263422 18.265625 27.390625 C18.265625 34.320625 18.265625 41.250625 18.265625 48.390625 C-4.834375 48.390625 -27.934375 48.390625 -51.734375 48.390625 C-48.46605755 60.37445566 -46.02100401 66.97023989 -35.6875 73.296875 C-29.06545866 77.00521815 -19.79733211 76.24316396 -12.4765625 74.70703125 C-6.44102496 72.68117533 -2.2703028 69.8257544 2.265625 65.390625 C5.50423803 66.83487135 7.88531663 68.64834747 10.515625 71.015625 C11.57523438 71.96308594 11.57523438 71.96308594 12.65625 72.9296875 C13.18734375 73.41179687 13.7184375 73.89390625 14.265625 74.390625 C6.84577921 83.90324781 -1.77033332 89.19742271 -13.734375 91.390625 C-28.60794446 92.89640023 -41.79944532 90.97996157 -53.734375 81.390625 C-63.97253003 72.60028987 -68.56993221 61.62702514 -70.734375 48.390625 C-71.81262605 32.94260515 -68.19649254 19.48619409 -58.109375 7.640625 C-42.67728784 -8.5699354 -19.13951088 -11.26496926 0 0 Z " fill="#141414" transform="translate(1181.734375,423.609375)"/>
<path d="M0 0 C0.89074219 -0.020625 1.78148437 -0.04125 2.69921875 -0.0625 C13.01140037 -0.12236753 21.81366699 2.54753067 29.75 9.25 C38.10518285 17.73544183 40.26535467 28.13951174 40.20318604 39.71147156 C40.18277143 41.13447699 40.16190765 42.55747604 40.140625 43.98046875 C40.13314634 45.46689587 40.12746111 46.95333298 40.12347412 48.43977356 C40.10834521 52.31479057 40.06917742 56.18918895 40.0246582 60.06396484 C39.98342681 64.03279252 39.96540419 68.0017221 39.9453125 71.97070312 C39.9026672 79.7307808 39.83242602 87.49022422 39.75 95.25 C33.81 95.25 27.87 95.25 21.75 95.25 C21.255 90.795 21.255 90.795 20.75 86.25 C19.1721875 87.5803125 19.1721875 87.5803125 17.5625 88.9375 C6.73174158 96.89517765 -5.13034055 99.0176371 -18.25 97.25 C-26.68889396 95.23722223 -32.42402932 91.453575 -37.25 84.25 C-41.38688909 77.07939224 -42.00160867 70.44562333 -41.25 62.25 C-38.71504957 53.47618194 -33.87074948 48.03542084 -25.98828125 43.609375 C-13.89027872 37.60351925 2.06414992 36.95327452 14.875 41.1875 C17.23344816 42.1195213 19.48372954 43.11686477 21.75 44.25 C21.57045181 34.75026827 20.18049215 26.68049215 13.25 19.75 C5.42800169 15.05680101 -4.48222109 14.7271304 -13.32666016 16.71728516 C-17.42527541 17.9287235 -21.3377765 19.54228339 -25.25 21.25 C-26.91511032 21.92054443 -28.58121057 22.58866493 -30.25 23.25 C-32.3125 21.6875 -32.3125 21.6875 -34.25 19.25 C-34.32352371 15.2061962 -33.77657041 12.99446162 -31.4375 9.6875 C-22.2823765 1.62992054 -11.65699304 0.06632713 0 0 Z " fill="#141414" transform="translate(882.25,417.75)"/>
<path d="M0 0 C0.33 26.4 0.66 52.8 1 80 C6.01902287 74.98097713 10.68993893 70.28771557 15.25390625 64.96484375 C17.09615675 62.89179676 19.02401662 60.94564198 21 59 C23.5792506 56.46027814 26.02217389 53.87548686 28.375 51.125 C28.96023438 50.47789062 29.54546875 49.83078125 30.1484375 49.1640625 C32.09044016 46.97530912 32.09044016 46.97530912 33.8515625 44.2734375 C37.08784135 40.09569571 39.4273323 37.41776774 44.70019531 36.56152344 C51.48099044 36.13054987 58.23430538 36.45014985 65 37 C60.83766994 41.9861121 56.48347921 46.59322565 51.81640625 51.10546875 C50.46361141 52.43104766 49.11141451 53.757237 47.75976562 55.08398438 C45.64971311 57.15054593 43.53616235 59.21295246 41.41235352 61.26538086 C39.34815751 63.26330295 37.29996831 65.27650238 35.25390625 67.29296875 C34.61135391 67.90657761 33.96880157 68.52018646 33.30677795 69.15238953 C32.72544601 69.73011612 32.14411407 70.30784271 31.54516602 70.90307617 C31.02809586 71.40602707 30.5110257 71.90897797 29.97828674 72.4271698 C28.77380327 73.99192611 28.77380327 73.99192611 29.27886963 76.08648682 C30.04858039 78.12890763 30.96044936 79.66778872 32.23046875 81.44140625 C32.69654541 82.09761963 33.16262207 82.75383301 33.64282227 83.42993164 C34.15256592 84.1336792 34.66230957 84.83742676 35.1875 85.5625 C35.71851318 86.30556396 36.24952637 87.04862793 36.79663086 87.81420898 C41.40542013 94.23945465 46.1172729 100.58862551 50.82543945 106.94116211 C54.76548473 112.27504723 58.61340246 117.66377729 62.375 123.125 C62.84558838 123.8063501 63.31617676 124.4877002 63.80102539 125.18969727 C67 129.871761 67 129.871761 67 131 C49.95925878 133.82763682 49.95925878 133.82763682 43.95507812 129.53955078 C40.10326483 125.40754705 37.36749202 120.52850137 34.57861328 115.64453125 C31.86562642 111.09966988 28.66990165 106.9199709 25.5 102.6875 C24.92386963 101.89432373 24.34773926 101.10114746 23.75415039 100.28393555 C20.75330349 96.17735091 17.71745436 92.47471014 14 89 C13.31292969 89.68707031 12.62585937 90.37414062 11.91796875 91.08203125 C4 99 4 99 2.37695312 100.24023438 C0.27802752 102.92269107 0.5617006 105.2741124 0.48828125 108.63671875 C0.45283203 109.93544922 0.41738281 111.23417969 0.38085938 112.57226562 C0.3577595 113.94400517 0.3349771 115.3157501 0.3125 116.6875 C0.27932458 118.07099607 0.24483469 119.45446129 0.20898438 120.83789062 C0.1263727 124.22496933 0.06151428 127.61247246 0 131 C-5.94 131 -11.88 131 -18 131 C-18 89.09 -18 47.18 -18 4 C-5 -1 -5 -1 0 0 Z " fill="#151515" transform="translate(1036,382)"/>
<path d="M0 0 C5.94 0 11.88 0 18 0 C18 7.59 18 15.18 18 23 C25.26 23 32.52 23 40 23 C40 27.95 40 32.9 40 38 C32.74 38 25.48 38 18 38 C18.04033609 45.75426487 18.09741849 53.50797167 18.18390274 61.26183701 C18.22339452 64.86240193 18.25557421 68.4627217 18.27099609 72.06347656 C18.28615218 75.5391659 18.3205771 79.01418133 18.36830902 82.48957062 C18.39034372 84.4592312 18.39247465 86.4290818 18.39434814 88.39886475 C18.41406677 89.59980774 18.4337854 90.80075073 18.45410156 92.03808594 C18.46298401 93.09509705 18.47186646 94.15210815 18.48101807 95.2411499 C19.12644323 98.67215812 20.321208 99.83496178 23 102 C25.9615696 103.4807848 28.83506295 103.35314037 32.125 103.5625 C34.04699219 103.68818359 34.04699219 103.68818359 36.0078125 103.81640625 C36.99523438 103.87699219 37.98265625 103.93757813 39 104 C39 107.63 39 111.26 39 115 C30.93732051 119.21458246 23.18189058 120.49218048 14.16796875 118.31640625 C8.51947793 116.27549727 5.2426604 114.06665687 2 109 C0.25991694 104.64541813 -0.24524149 101.02706395 -0.22705078 96.35205078 C-0.22682419 94.40070724 -0.22682419 94.40070724 -0.22659302 92.40994263 C-0.21638202 91.00506433 -0.20595007 89.60018763 -0.1953125 88.1953125 C-0.19157846 86.74657385 -0.18873333 85.29783266 -0.18673706 83.84909058 C-0.17913136 80.0514824 -0.15950952 76.25402922 -0.1373291 72.45648193 C-0.11680438 68.57517595 -0.10772122 64.69384471 -0.09765625 60.8125 C-0.07626043 53.20825477 -0.04110362 45.60416892 0 38 C-4.62 38 -9.24 38 -14 38 C-14 33.05 -14 28.1 -14 23 C-9.38 23 -4.76 23 0 23 C0 15.41 0 7.82 0 0 Z " fill="#151515" transform="translate(1227,396)"/>
<path d="M0 0 C0 5.61 0 11.22 0 17 C-3.155625 17.061875 -3.155625 17.061875 -6.375 17.125 C-13.5288173 17.66695586 -18.64933676 19.11161833 -24 24 C-31.02064433 33.02445323 -32.30417175 41.46667735 -32.4140625 52.6171875 C-32.43342865 53.82948029 -32.4527948 55.04177307 -32.4727478 56.290802 C-32.53239315 60.15213039 -32.57886945 64.01348883 -32.625 67.875 C-32.66319356 70.49740863 -32.70224609 73.11980491 -32.7421875 75.7421875 C-32.83808261 82.16135762 -32.92216975 88.58058646 -33 95 C-38.94 95 -44.88 95 -51 95 C-51 63.98 -51 32.96 -51 1 C-45.06 1 -39.12 1 -33 1 C-32.505 9.415 -32.505 9.415 -32 18 C-31.154375 16.63875 -30.30875 15.2775 -29.4375 13.875 C-21.72856181 2.39283445 -13.5217609 -0.50706603 0 0 Z " fill="#181818" transform="translate(1001,418)"/>
<path d="M0 0 C2 2 2 2 2.6875 5.25 C2 9 2 9 0.39257812 10.44580078 C-5.98014544 14.47527446 -12.52368796 18.10014181 -19.1875 21.625 C-21.51460969 22.86665018 -23.8414282 24.10884623 -26.16796875 25.3515625 C-27.32216309 25.96676758 -28.47635742 26.58197266 -29.66552734 27.21582031 C-34.45986615 29.78113207 -39.23102542 32.38792559 -44 35 C-52.06400381 39.41133205 -60.15223489 43.77598311 -68.25 48.125 C-75.73166836 52.14605468 -83.20093881 56.18593207 -90.625 60.3125 C-91.33333984 60.70429443 -92.04167969 61.09608887 -92.77148438 61.49975586 C-96.36371421 63.4954856 -99.9192754 65.53774892 -103.4453125 67.6484375 C-104.16895996 68.07471436 -104.89260742 68.50099121 -105.63818359 68.94018555 C-107.00114029 69.74519662 -108.35637087 70.56350455 -109.70166016 71.39770508 C-112.7721094 73.19943072 -114.73671799 74.00587131 -118.328125 73.92578125 C-121 73 -121 73 -123 70 C-123.625 67.125 -123.625 67.125 -123 64 C-120.34265533 61.98041805 -117.92882353 60.55055363 -115 59 C-113.37992668 58.05362054 -111.75997566 57.10702401 -110.14233398 56.15649414 C-104.95671611 53.12993861 -99.71116978 50.32053544 -94.3125 47.6875 C-87.70215088 44.44187814 -81.35610878 40.817683 -75.01098633 37.08276367 C-65.40760675 31.43462711 -55.58372697 26.23809258 -45.6875 21.125 C-34.21546538 15.16710699 -22.9936774 8.91710858 -11.98828125 2.12890625 C-7.96456384 -0.15567986 -4.55455799 -0.24843044 0 0 Z " fill="#171717" transform="translate(474,403)"/>
<path d="M0 0 C2.64 0 5.28 0 8 0 C8 56.1 8 112.2 8 170 C5.36 170 2.72 170 0 170 C0 113.9 0 57.8 0 0 Z " fill="#171818" transform="translate(628,363)"/>
<path d="M0 0 C0 0.66 0 1.32 0 2 C0.99 2.33 1.98 2.66 3 3 C2.34 3 1.68 3 1 3 C1.33 3.99 1.66 4.98 2 6 C1.67 6.66 1.34 7.32 1 8 C1.99 8 2.98 8 4 8 C4.3125 10.25 4.3125 10.25 4 13 C1.625 15.0625 1.625 15.0625 -1 17 C-3.57884569 21.20059401 -3.77703324 25.20020093 -3 30 C-1.20837601 34.16712544 1.21694475 36.49427682 5 38.9375 C12.97632344 41.73529537 21.9951049 40.51372138 29.78125 37.75390625 C32.16603764 36.94358228 34.52413709 36.4489681 37 36 C36 39 36 39 33.9375 41 C31.65210239 42.89502283 31.65210239 42.89502283 32 46 C31.01 46 30.02 46 29 46 C28.835 46.928125 28.67 47.85625 28.5 48.8125 C27 52 27 52 23.453125 53.66796875 C19.02525748 55.17318581 14.90388747 55.54030648 10.25 55.5 C9.4664917 55.49355469 8.6829834 55.48710938 7.87573242 55.48046875 C-0.11408792 55.23127357 -7.03774218 53.45809957 -13.1796875 48.09765625 C-20.17244872 40.53909069 -22.3713496 33.20630991 -22.28515625 23.109375 C-21.68891282 16.60787126 -18.67168974 10.54875054 -14 6 C-5.41626794 0 -5.41626794 0 0 0 Z " fill="#141414" transform="translate(863,460)"/>
<path d="M0 0 C7.07766192 3.74931905 11.20932833 9.99235226 14.43359375 17.12890625 C15.0625 19.5 15.0625 19.5 15.0625 26.5 C-2.4275 26.5 -19.9175 26.5 -37.9375 26.5 C-37.9375 18.12104265 -35.76635744 11.88562642 -30.19140625 5.5 C-21.67109169 -2.09048067 -10.81666396 -4.18169999 0 0 Z " fill="#F8F8F8" transform="translate(1167.9375,433.5)"/>
<path d="M0 0 C2.72289613 2.72289613 2.39495315 4.38392881 2.5 8.1875 C2.4226023 12.57014463 2.2873695 15.59343687 -0.5 19.0625 C-8.0088822 26.21635231 -16.75410715 27.38660613 -26.76953125 27.2734375 C-32.15220152 26.81783059 -35.6932854 25.18233293 -39.59375 21.4921875 C-42.83375777 17.62217822 -43.73340106 14.15344121 -43.41796875 9.140625 C-42.45767193 4.22246934 -39.81923651 1.61860716 -35.9375 -1.3125 C-25.84678495 -7.10929375 -10.07964079 -4.93182424 0 0 Z " fill="#F8F8F8" transform="translate(902,474)"/>
<path d="M0 0 C0 0.99 0 1.98 0 3 C-1.98 3.99 -1.98 3.99 -4 5 C-4 5.99 -4 6.98 -4 8 C-3.01 8 -2.02 8 -1 8 C-1 9.32 -1 10.64 -1 12 C-0.67 12.99 -0.34 13.98 0 15 C-2.85948337 16.71488302 -5.73960028 18.39165226 -8.625 20.0625 C-9.83736328 20.79049805 -9.83736328 20.79049805 -11.07421875 21.53320312 C-14.77688568 23.65546344 -17.13013854 25.00098178 -21.4609375 24.99609375 C-24 24 -24 24 -26 21 C-26.625 18.125 -26.625 18.125 -26 15 C-23.33795983 12.97684947 -20.93456534 11.55234254 -18 10 C-16.82812189 9.33137203 -15.65903328 8.65784058 -14.4921875 7.98046875 C-4.35747357 2.10323601 -4.35747357 2.10323601 0 0 Z " fill="#191919" transform="translate(377,452)"/>
<path d="M0 0 C0.66 0 1.32 0 2 0 C2 30.69 2 61.38 2 93 C1.67 93 1.34 93 1 93 C0.67 63.96 0.34 34.92 0 5 C-0.66 4.67 -1.32 4.34 -2 4 C-1.34 2.68 -0.68 1.36 0 0 Z " fill="#EDEDED" transform="translate(798,419)"/>
<path d="M0 0 C3.375 -0.125 3.375 -0.125 7 0 C9 2 9 2 9.5 5.375 C9 9 9 9 6.125 11.4375 C3 13 3 13 1 13 C-0.96733733 9.4342011 -1 7.06058324 -1 3 C-0.67 2.01 -0.34 1.02 0 0 Z " fill="#121212" transform="translate(467,403)"/>
<path d="M0 0 C2.61800432 1.30900216 2.96751632 2.27716694 4 5 C4.1953125 8.015625 4.1953125 8.015625 4.125 11.25 C4.10695313 12.32765625 4.08890625 13.4053125 4.0703125 14.515625 C4.04710937 15.33546875 4.02390625 16.1553125 4 17 C3.67 17 3.34 17 3 17 C2.67 14.03 2.34 11.06 2 8 C1.48050781 8.40992188 0.96101562 8.81984375 0.42578125 9.2421875 C-3.2423777 12.07636576 -6.51449706 14.59828033 -11 16 C-11.33 14.68 -11.66 13.36 -12 12 C-11.01 12 -10.02 12 -9 12 C-9 11.34 -9 10.68 -9 10 C-8.01 10 -7.02 10 -6 10 C-6.185625 9.38125 -6.37125 8.7625 -6.5625 8.125 C-7 6 -7 6 -6 4 C-3.4375 3.375 -3.4375 3.375 -1 3 C-0.67 2.01 -0.34 1.02 0 0 Z " fill="#212121" transform="translate(901,496)"/>
<path d="M0 0 C0.33 0 0.66 0 1 0 C1.00808685 0.90788773 1.01617371 1.81577545 1.02450562 2.75117493 C1.10239429 11.30044355 1.18966757 19.84955346 1.28752708 28.39861774 C1.33750739 32.79395189 1.38383721 37.18926179 1.421875 41.5847168 C1.45870599 45.82529656 1.50505985 50.06567439 1.55806351 54.30608177 C1.57661912 55.92518769 1.59172277 57.54433692 1.60334396 59.16350746 C1.62018665 61.42863338 1.64921615 63.69329564 1.68115234 65.95825195 C1.69447601 67.24842728 1.70779968 68.5386026 1.7215271 69.86787415 C1.76251014 73.16250309 1.76251014 73.16250309 4 76 C2.68 76.99 1.36 77.98 0 79 C0 52.93 0 26.86 0 0 Z " fill="#EFEFEF" transform="translate(1036,384)"/>
<path d="M0 0 C0.66 0 1.32 0 2 0 C2 0.66 2 1.32 2 2 C2.99 2 3.98 2 5 2 C5 4.33333333 5 6.66666667 5 9 C3 11 3 11 0 12 C-0.99 11.01 -1.98 10.02 -3 9 C-2.649375 8.38125 -2.29875 7.7625 -1.9375 7.125 C-1.628125 6.42375 -1.31875 5.7225 -1 5 C-1.33 4.34 -1.66 3.68 -2 3 C-1.34 2.34 -0.68 1.68 0 1 C0 0.67 0 0.34 0 0 Z M7 3 C7.66 3 8.32 3 9 3 C9 3.66 9 4.32 9 5 C8.01 4.67 7.02 4.34 6 4 C6.33 3.67 6.66 3.34 7 3 Z " fill="#0F0F0F" transform="translate(446,415)"/>
<path d="M0 0 C1.32 1.32 2.64 2.64 4 4 C3.67 4.66 3.34 5.32 3 6 C2.34 6 1.68 6 1 6 C-0.58455866 7.78723941 -0.58455866 7.78723941 -2.125 10 C-2.93324219 11.11375 -2.93324219 11.11375 -3.7578125 12.25 C-4.16773438 12.8275 -4.57765625 13.405 -5 14 C-6.89213369 11.61426621 -8.02391783 9.92824652 -9 7 C-8.34 7 -7.68 7 -7 7 C-6.67 6.34 -6.34 5.68 -6 5 C-5.67 5.99 -5.34 6.98 -5 8 C-4.34 8 -3.68 8 -3 8 C-3.061875 7.05125 -3.12375 6.1025 -3.1875 5.125 C-3.125625 4.09375 -3.06375 3.0625 -3 2 C-2.01 1.34 -1.02 0.68 0 0 Z " fill="#0C0D0D" transform="translate(977,431)"/>
<path d="M0 0 C3.16115776 1.36983503 3.9927092 1.9890638 6 5 C7.32 5 8.64 5 10 5 C10.33 6.65 10.66 8.3 11 10 C11.99 10.33 12.98 10.66 14 11 C13.67 11.66 13.34 12.32 13 13 C9.40386061 12.7480813 8.22875379 12.25230785 5.76171875 9.53125 C5.07722656 8.5309375 4.39273437 7.530625 3.6875 6.5 C2.99011719 5.4996875 2.29273438 4.499375 1.57421875 3.46875 C0 1 0 1 0 0 Z M12 5 C12.66 5.33 13.32 5.66 14 6 C13.01 6 12.02 6 11 6 C11.33 5.67 11.66 5.34 12 5 Z " fill="#202020" transform="translate(1073,500)"/>
<path d="M0 0 C0.33 0.99 0.66 1.98 1 3 C2.65 2.67 4.3 2.34 6 2 C7.125 5.75 7.125 5.75 6 8 C7.32 7.67 8.64 7.34 10 7 C10 7.66 10 8.32 10 9 C7.25 9.75 7.25 9.75 4 10 C1.625 8.4375 1.625 8.4375 0 6 C-0.25 2.75 -0.25 2.75 0 0 Z " fill="#262626" transform="translate(351,467)"/>
<path d="M0 0 C0.66 0.33 1.32 0.66 2 1 C1.360625 1.78375 0.72125 2.5675 0.0625 3.375 C-1.98142313 5.79539281 -1.98142313 5.79539281 -3 8 C-4.1446875 7.938125 -4.1446875 7.938125 -5.3125 7.875 C-8.22718416 7.77919176 -8.22718416 7.77919176 -11 10 C-11 9.34 -11 8.68 -11 8 C-11.66 7.67 -12.32 7.34 -13 7 C-10.88002166 5.80266012 -8.75486324 4.61701287 -6.625 3.4375 C-6.02171875 3.09525391 -5.4184375 2.75300781 -4.796875 2.40039062 C-3.23021759 1.53872905 -1.61709138 0.76281817 0 0 Z " fill="#282828" transform="translate(459,407)"/>
<path d="M0 0 C-1.24926758 1.5090332 -1.24926758 1.5090332 -3 3 C-4.90112305 3.15698242 -4.90112305 3.15698242 -7.01171875 2.85546875 C-8.14770508 2.70561523 -8.14770508 2.70561523 -9.30664062 2.55273438 C-10.09232422 2.43220703 -10.87800781 2.31167969 -11.6875 2.1875 C-12.48478516 2.07857422 -13.28207031 1.96964844 -14.10351562 1.85742188 C-16.07110863 1.58643601 -18.03588613 1.29514792 -20 1 C-20 0.67 -20 0.34 -20 0 C-17.41814569 -0.3902803 -14.83579017 -0.76263148 -12.25 -1.125 C-11.52039062 -1.23714844 -10.79078125 -1.34929687 -10.0390625 -1.46484375 C-6.0994391 -2.00206512 -3.33777335 -2.3715758 0 0 Z " fill="#393939" transform="translate(1174,500)"/>
<path d="M0 0 C0.66 0.66 1.32 1.32 2 2 C1.34 2 0.68 2 0 2 C0 2.99 0 3.98 0 5 C0.99 4.67 1.98 4.34 3 4 C3 4.66 3 5.32 3 6 C2.34 6 1.68 6 1 6 C1 6.66 1 7.32 1 8 C-1.31 8.33 -3.62 8.66 -6 9 C-6 6 -6 6 -4.6875 4.39453125 C-4.130625 3.87246094 -3.57375 3.35039062 -3 2.8125 C-2.443125 2.28269531 -1.88625 1.75289063 -1.3125 1.20703125 C-0.6628125 0.60955078 -0.6628125 0.60955078 0 0 Z " fill="#1F1F1F" transform="translate(1058,440)"/>
<path d="M0 0 C0.66 0.33 1.32 0.66 2 1 C2 1.99 2 2.98 2 4 C0.68 4.33 -0.64 4.66 -2 5 C-2 5.99 -2 6.98 -2 8 C-4.31 7.67 -6.62 7.34 -9 7 C-9 6.34 -9 5.68 -9 5 C-7.54735962 4.1361871 -6.0876837 3.28419546 -4.625 2.4375 C-3.40683594 1.72400391 -3.40683594 1.72400391 -2.1640625 0.99609375 C-1.44992187 0.66738281 -0.73578125 0.33867187 0 0 Z " fill="#E8EAE9" transform="translate(506,439)"/>
<path d="M0 0 C0 3.59945889 -0.58199238 3.90101998 -3 6.375 C-5.58048293 9.20152735 -5.58048293 9.20152735 -6.375 12.9375 C-6.25125 13.618125 -6.1275 14.29875 -6 15 C-6.99 15.495 -6.99 15.495 -8 16 C-10 13 -10 13 -9.91015625 11.109375 C-8.6428854 8.17235243 -6.73892742 6.45418401 -4.4375 4.25 C-3.61121094 3.45078125 -2.78492188 2.6515625 -1.93359375 1.828125 C-1.29550781 1.22484375 -0.65742187 0.6215625 0 0 Z " fill="#E0E0E0" transform="translate(1074,446)"/>
<path d="M0 0 C0.99 0.33 1.98 0.66 3 1 C2.67 1.33 2.34 1.66 2 2 C2.99 2.33 3.98 2.66 5 3 C5 3.66 5 4.32 5 5 C2.1875 6.5625 2.1875 6.5625 -1 8 C-1.99 7.67 -2.98 7.34 -4 7 C-4 5.68 -4 4.36 -4 3 C-3.34 3 -2.68 3 -2 3 C-1.34 2.01 -0.68 1.02 0 0 Z " fill="#1D1D1D" transform="translate(855,433)"/>
<path d="M0 0 C0.99 0.33 1.98 0.66 3 1 C-0.11016455 4.28788824 -3.01618925 6.83735988 -7 9 C-6.67 7.02 -6.34 5.04 -6 3 C-5.195625 2.87625 -4.39125 2.7525 -3.5625 2.625 C-2.716875 2.41875 -1.87125 2.2125 -1 2 C-0.67 1.34 -0.34 0.68 0 0 Z " fill="#212121" transform="translate(567,521)"/>
<path d="M0 0 C1.875 0.3125 1.875 0.3125 4 1 C4.66 1.99 5.32 2.98 6 4 C0.375 7 0.375 7 -3 7 C-2.38722388 4.03824877 -1.74627478 2.61941217 0 0 Z " fill="#1F1F1F" transform="translate(980,433)"/>
<path d="M0 0 C0.66 0.33 1.32 0.66 2 1 C2 1.99 2 2.98 2 4 C1.01 4.66 0.02 5.32 -1 6 C-1.33 6.66 -1.66 7.32 -2 8 C-2.99 8 -3.98 8 -5 8 C-5.66 6.68 -6.32 5.36 -7 4 C-1.7265625 0.77734375 -1.7265625 0.77734375 0 0 Z " fill="#EAEAEA" transform="translate(426,439)"/>
<path d="M0 0 C0.66 0.33 1.32 0.66 2 1 C1.67 1.66 1.34 2.32 1 3 C1.66 3.33 2.32 3.66 3 4 C2.67 4.99 2.34 5.98 2 7 C-3.75 5.125 -3.75 5.125 -6 4 C-5.67 3.01 -5.34 2.02 -5 1 C-4.01 1.33 -3.02 1.66 -2 2 C-1.34 1.34 -0.68 0.68 0 0 Z " fill="#1E1E1E" transform="translate(1139,505)"/>
<path d="M0 0 C0.66 1.32 1.32 2.64 2 4 C1.01 4.33 0.02 4.66 -1 5 C-1.73323796 7.01508358 -1.73323796 7.01508358 -2 9 C-2.66 9 -3.32 9 -4 9 C-4.33 9.99 -4.66 10.98 -5 12 C-5 8 -5 8 -3 6 C-3 5.01 -3 4.02 -3 3 C-1.5 1.3125 -1.5 1.3125 0 0 Z " fill="#0B0B0B" transform="translate(902,491)"/>
<path d="M0 0 C1.65 0.33 3.3 0.66 5 1 C5.33 1.99 5.66 2.98 6 4 C3.625 5.0625 3.625 5.0625 1 6 C0.34 5.67 -0.32 5.34 -1 5 C-0.67 3.35 -0.34 1.7 0 0 Z " fill="#1C1C1C" transform="translate(402,490)"/>
<path d="M0 0 C-0.309375 0.598125 -0.61875 1.19625 -0.9375 1.8125 C-2.10209704 4.08956772 -2.10209704 4.08956772 -3 7 C-4.98 6.34 -6.96 5.68 -9 5 C-6.45523312 2.20075644 -3.92372883 0 0 0 Z " fill="#E3E3E3" transform="translate(464,463)"/>
<path d="M0 0 C7.59 0 15.18 0 23 0 C22.01 0.99 21.02 1.98 20 3 C19.34 2.67 18.68 2.34 18 2 C16.6265365 1.84995027 15.2471474 1.75161994 13.8671875 1.68359375 C13.06152344 1.64169922 12.25585938 1.59980469 11.42578125 1.55664062 C10.58402344 1.51732422 9.74226563 1.47800781 8.875 1.4375 C8.02550781 1.39431641 7.17601562 1.35113281 6.30078125 1.30664062 C4.20071777 1.20045764 2.10038052 1.09971503 0 1 C0 0.67 0 0.34 0 0 Z " fill="#323232" transform="translate(1078,419)"/>
<path d="M0 0 C2.50298434 2.93828597 3.46930939 5.17902761 4 9 C2.35 8.67 0.7 8.34 -1 8 C-1.125 2.25 -1.125 2.25 0 0 Z " fill="#1A1A1A" transform="translate(731,407)"/>
<path d="M0 0 C0.66 0.99 1.32 1.98 2 3 C0.68 5.31 -0.64 7.62 -2 10 C-3.32 9.34 -4.64 8.68 -6 8 C-5 6 -5 6 -3 5 C-3 4.01 -3 3.02 -3 2 C-2.34 2 -1.68 2 -1 2 C-0.67 1.34 -0.34 0.68 0 0 Z " fill="#202020" transform="translate(790,429)"/>
<path d="M0 0 C-3.96 1.98 -7.92 3.96 -12 6 C-12 5.34 -12 4.68 -12 4 C-11.34 4 -10.68 4 -10 4 C-9.67 2.68 -9.34 1.36 -9 0 C-5.32431536 -0.91892116 -3.83619425 -0.95904856 0 0 Z " fill="#222423" transform="translate(547,418)"/>
<path d="M0 0 C2.0625 0.4375 2.0625 0.4375 4 1 C4 1.99 4 2.98 4 4 C1.5 6.1875 1.5 6.1875 -1 8 C-1 6.68 -1 5.36 -1 4 C-0.34 4 0.32 4 1 4 C1 3.34 1 2.68 1 2 C0.34 1.67 -0.32 1.34 -1 1 C-0.67 0.67 -0.34 0.34 0 0 Z " fill="#222423" transform="translate(1191,496)"/>
<path d="M0 0 C-2.35277269 2.72426311 -4.62496331 3.8141763 -8 5 C-8 3.68 -8 2.36 -8 1 C-4.93251126 -0.86240388 -3.40254489 -1.2151946 0 0 Z " fill="#1E1E1E" transform="translate(454,467)"/>
<path d="M0 0 C1.32 0.66 2.64 1.32 4 2 C2.3125 3.5625 2.3125 3.5625 0 5 C-2.75 4.6875 -2.75 4.6875 -5 4 C-3.35 2.68 -1.7 1.36 0 0 Z M-7 4 C-6.34 4 -5.68 4 -5 4 C-5.33 4.66 -5.66 5.32 -6 6 C-6.33 5.34 -6.66 4.68 -7 4 Z " fill="#1A1A1A" transform="translate(431,449)"/>
<path d="M0 0 C2.1385485 2.1385485 2.42655063 3.13275314 3 6 C2.34 6 1.68 6 1 6 C0.67 6.66 0.34 7.32 0 8 C-1.32 7.34 -2.64 6.68 -4 6 C-4 5.01 -4 4.02 -4 3 C-3.01 2.67 -2.02 2.34 -1 2 C-0.67 1.34 -0.34 0.68 0 0 Z " fill="#0C0C0C" transform="translate(901,433)"/>
<path d="M0 0 C0.33 0.99 0.66 1.98 1 3 C-0.28965176 4.37562854 -1.62689293 5.70766393 -3 7 C-3.66 7 -4.32 7 -5 7 C-4.75 4.625 -4.75 4.625 -4 2 C-1.9375 0.6875 -1.9375 0.6875 0 0 Z " fill="#1E1E1E" transform="translate(357,463)"/>
<path d="M0 0 C0.33 0.66 0.66 1.32 1 2 C1.66 2 2.32 2 3 2 C3.33 3.32 3.66 4.64 4 6 C1 7 1 7 -2 6 C-1.34 4.02 -0.68 2.04 0 0 Z " fill="#252525" transform="translate(761,449)"/>
<path d="M0 0 C1.65 0 3.3 0 5 0 C4.67 1.65 4.34 3.3 4 5 C2.125 5.625 2.125 5.625 0 6 C-0.66 5.34 -1.32 4.68 -2 4 C-1.34 2.68 -0.68 1.36 0 0 Z " fill="#0E0E0E" transform="translate(411,438)"/>
<path d="M0 0 C0.66 0 1.32 0 2 0 C2.33 0.66 2.66 1.32 3 2 C3.99 2 4.98 2 6 2 C4.3545622 3.68762851 2.68711423 5.3540349 1 7 C0.67 7 0.34 7 0 7 C-0.38133299 5.0085944 -0.71325582 3.00720923 -1 1 C-0.67 0.67 -0.34 0.34 0 0 Z " fill="#1A1A1A" transform="translate(1137,433)"/>
<path d="M0 0 C0.99 0.33 1.98 0.66 3 1 C3 1.66 3 2.32 3 3 C2.34 3 1.68 3 1 3 C0.67 3.99 0.34 4.98 0 6 C-1.65 6 -3.3 6 -5 6 C-3.35 4.02 -1.7 2.04 0 0 Z " fill="#282828" transform="translate(1071,426)"/>
<path d="M0 0 C0.99 0.99 1.98 1.98 3 3 C-2.75 6 -2.75 6 -5 6 C-5 5.34 -5 4.68 -5 4 C-4.34 4 -3.68 4 -3 4 C-2.67 3.01 -2.34 2.02 -2 1 C-1.34 0.67 -0.68 0.34 0 0 Z " fill="#E6E6E6" transform="translate(360,458)"/>
<path d="M0 0 C0.66 0.33 1.32 0.66 2 1 C1.6875 2.9375 1.6875 2.9375 1 5 C0.01 5.33 -0.98 5.66 -2 6 C-2.99 5.01 -3.98 4.02 -5 3 C-2.625 1.4375 -2.625 1.4375 0 0 Z " fill="#EBEBEB" transform="translate(450,426)"/>
<path d="M0 0 C0 0.99 0 1.98 0 3 C-1.75 4.75 -1.75 4.75 -4 6 C-6.25 5.6875 -6.25 5.6875 -8 5 C-5.44008376 2.98863724 -2.95409701 1.37154504 0 0 Z " fill="#202020" transform="translate(481,422)"/>
<path d="M0 0 C0.99 0 1.98 0 3 0 C4.6875 2 4.6875 2 6 4 C5.67 4.66 5.34 5.32 5 6 C3.0625 5.25 3.0625 5.25 1 4 C0.25 1.875 0.25 1.875 0 0 Z " fill="#212121" transform="translate(1231,505)"/>
<path d="M0 0 C2.11180592 2.57089417 3.66306057 4.63060567 4 8 C3.34 8.66 2.68 9.32 2 10 C1.34 9.67 0.68 9.34 0 9 C0 6.03 0 3.06 0 0 Z " fill="#242424" transform="translate(738,420)"/>
<path d="M0 0 C0.66 0 1.32 0 2 0 C2 3.96 2 7.92 2 12 C1.67 12 1.34 12 1 12 C0.87625 10.865625 0.7525 9.73125 0.625 8.5625 C0.41875 7.386875 0.2125 6.21125 0 5 C-0.66 4.67 -1.32 4.34 -2 4 C-1.34 2.68 -0.68 1.36 0 0 Z " fill="#D7D7D7" transform="translate(798,419)"/>
<path d="M0 0 C1.98 0 3.96 0 6 0 C3.63707344 2.52588702 2.33537489 3.88820837 -1 5 C-1 2 -1 2 0 0 Z " fill="#E7E7E7" transform="translate(525,394)"/>
<path d="M0 0 C1.32 1.32 2.64 2.64 4 4 C3.34 4 2.68 4 2 4 C1.67 4.66 1.34 5.32 1 6 C1 5.34 1 4.68 1 4 C-0.65 4 -2.3 4 -4 4 C-2.68 2.68 -1.36 1.36 0 0 Z " fill="#282828" transform="translate(346,368)"/>
<path d="M0 0 C1.5625 1.8125 1.5625 1.8125 3 4 C2.67 4.99 2.34 5.98 2 7 C1.34 7 0.68 7 0 7 C0 6.34 0 5.68 0 5 C-0.99 5.33 -1.98 5.66 -3 6 C-2.67 5.01 -2.34 4.02 -2 3 C-1.34 3 -0.68 3 0 3 C0 2.01 0 1.02 0 0 Z " fill="#1E1E1E" transform="translate(1244,492)"/>
<path d="M0 0 C1.40182371 2.61673759 2.60495559 5.0371669 3 8 C2.34 8.66 1.68 9.32 1 10 C-0.80411967 7.24075815 -1.0127245 6.11027897 -0.625 2.75 C-0.41875 1.8425 -0.2125 0.935 0 0 Z " fill="#212121" transform="translate(1130,477)"/>
<path d="M0 0 C-2.13464912 2.45484649 -3.70720291 3.68134222 -7 4 C-7.66 3.34 -8.32 2.68 -9 2 C-3.375 -1.125 -3.375 -1.125 0 0 Z " fill="#2B2B2B" transform="translate(511,408)"/>
<path d="M0 0 C1.33332095 2.6666419 0.67102033 4.16680303 0 7 C-1.32 7.33 -2.64 7.66 -4 8 C-2.25 2.25 -2.25 2.25 0 0 Z " fill="#F8F8F8" transform="translate(1050,470)"/>
<path d="M0 0 C0.99 0.33 1.98 0.66 3 1 C2.34 2.98 1.68 4.96 1 7 C0.01 6.67 -0.98 6.34 -2 6 C-1.34 4.02 -0.68 2.04 0 0 Z " fill="#0D0D0D" transform="translate(358,463)"/>
<path d="M0 0 C2.475 0.99 2.475 0.99 5 2 C4.01 2.99 3.02 3.98 2 5 C1.01 4.67 0.02 4.34 -1 4 C-0.67 2.68 -0.34 1.36 0 0 Z " fill="#E7E7E7" transform="translate(424,448)"/>
<path d="M0 0 C0.99 1.32 1.98 2.64 3 4 C2.01 4.495 2.01 4.495 1 5 C0.67 5.66 0.34 6.32 0 7 C-0.66 7 -1.32 7 -2 7 C-1.125 2.25 -1.125 2.25 0 0 Z " fill="#212121" transform="translate(723,392)"/>
<path d="M0 0 C1.98 0 3.96 0 6 0 C6 2.31 6 4.62 6 7 C5.38125 6.21625 4.7625 5.4325 4.125 4.625 C2.10141339 2.03162353 2.10141339 2.03162353 0 0 Z " fill="#222222" transform="translate(1260,500)"/>
<path d="M0 0 C0.33 0.66 0.66 1.32 1 2 C1.66 2.33 2.32 2.66 3 3 C2.030625 3.12375 1.06125 3.2475 0.0625 3.375 C-0.948125 3.58125 -1.95875 3.7875 -3 4 C-3.33 4.66 -3.66 5.32 -4 6 C-3.6875 4.125 -3.6875 4.125 -3 2 C-2.01 1.34 -1.02 0.68 0 0 Z " fill="#171717" transform="translate(345,496)"/>
<path d="M0 0 C1.98 0.495 1.98 0.495 4 1 C3.6875 2.9375 3.6875 2.9375 3 5 C2.01 5.33 1.02 5.66 0 6 C-1 3 -1 3 0 0 Z " fill="#1F1F1F" transform="translate(843,474)"/>
<path d="M0 0 C0.66 0.66 1.32 1.32 2 2 C0.515 4.475 0.515 4.475 -1 7 C-1.66 6.34 -2.32 5.68 -3 5 C-3 4.01 -3 3.02 -3 2 C-2.01 2 -1.02 2 0 2 C0 1.34 0 0.68 0 0 Z " fill="#1F1F1F" transform="translate(766,473)"/>
<path d="M0 0 C0.33 1.32 0.66 2.64 1 4 C-0.65 4.66 -2.3 5.32 -4 6 C-4 5.01 -4 4.02 -4 3 C-2 1.3125 -2 1.3125 0 0 Z " fill="#1E1E1E" transform="translate(437,473)"/>
</svg>
